PathFileType        4      (X/Y/Z)      C:\Users\pc\Desktop\IMUTRC\Sujet_03\Sujet_03_Tpose.trc         
DataRate	CameraRate	NumFrames	NumMarkers	Units	OrigDataRate	OrigDataStartFrame	OrigNumFrames
60.0	60.0	4	64	mm	60.0	108	123
Frame#	Time	pHipOrigin			pRightASI			pLeftASI			pRightCSI			pLeftCSI			pRightIschialTub			pLeftIschialTub			pSacrum			pL5SpinalProcess			pL3SpinalProcess			pT12SpinalProcess			pIJ			pT4SpinalProcess			pT8SpinalProcess			pPX			pC7SpinalProcess			pTopOfHead			pRightAuricularis			pLeftAuricularis			pBackOfHead			pRightAcromion			pLeftAcromion			pRightArmLatEpicondyle			pRightArmMedEpicondyle			pLeftArmLatEpicondyle			pLeftArmMedEpicondyle			pRightUlnarStyloid			pRightRadialStyloid			pRightOlecranon			pLeftUlnarStyloid			pLeftRadialStyloid			pLeftOlecranon			pRightTopOfHand			pRightPinky			pRightBallHand			pLeftTopOfHand			pLeftPinky			pLeftBallHand			pRightGreaterTrochanter			pRightKneeLatEpicondyle			pRightKneeMedEpicondyle			pRightPatella			pLeftGreaterTrochanter			pLeftKneeLatEpicondyle			pLeftKneeMedEpicondyle			pLeftPatella			pRightTibialTub			pRightLatMalleolus			pRightMedMalleolus			pLeftTibialTub			pLeftLatMalleolus			pLeftMedMalleolus			pRightHeelFoot			pRightFirstMetatarsal			pRightFifthMetatarsal			pRightPivotFoot			pRightHeelCenter			pRightToe			pLeftHeelFoot			pLeftFirstMetatarsal			pLeftFifthMetatarsal			pLeftPivotFoot			pLeftHeelCenter			pLeftToe			
		X1	Y1	Z1	X2	Y2	Z2	X3	Y3	Z3	X4	Y4	Z4	X5	Y5	Z5	X6	Y6	Z6	X7	Y7	Z7	X8	Y8	Z8	X9	Y9	Z9	X10	Y10	Z10	X11	Y11	Z11	X12	Y12	Z12	X13	Y13	Z13	X14	Y14	Z14	X15	Y15	Z15	X16	Y16	Z16	X17	Y17	Z17	X18	Y18	Z18	X19	Y19	Z19	X20	Y20	Z20	X21	Y21	Z21	X22	Y22	Z22	X23	Y23	Z23	X24	Y24	Z24	X25	Y25	Z25	X26	Y26	Z26	X27	Y27	Z27	X28	Y28	Z28	X29	Y29	Z29	X30	Y30	Z30	X31	Y31	Z31	X32	Y32	Z32	X33	Y33	Z33	X34	Y34	Z34	X35	Y35	Z35	X36	Y36	Z36	X37	Y37	Z37	X38	Y38	Z38	X39	Y39	Z39	X40	Y40	Z40	X41	Y41	Z41	X42	Y42	Z42	X43	Y43	Z43	X44	Y44	Z44	X45	Y45	Z45	X46	Y46	Z46	X47	Y47	Z47	X48	Y48	Z48	X49	Y49	Z49	X50	Y50	Z50	X51	Y51	Z51	X52	Y52	Z52	X53	Y53	Z53	X54	Y54	Z54	X55	Y55	Z55	X56	Y56	Z56	X57	Y57	Z57	X58	Y58	Z58	X59	Y59	Z59	X60	Y60	Z60	X61	Y61	Z61	X62	Y62	Z62	X63	Y63	Z63	X64	Y64	Z64	
108	1.783	-378.79537	984.6731	-768.3086699999999	-294.82878	1082.68189	-638.0887999999999	-318.72917	1082.16605	-911.5390499999999	-339.07602	1152.54897	-658.3783399999999	-358.79241	1152.09045	-884.1424499999999	-432.78618	929.53599	-706.6376399999999	-442.64437	929.30673	-819.5483499999999	-445.51013	1009.14664	-762.5771599999999	-405.84809	1100.50688	-766.3026399999999	-389.11209	1215.76751	-766.9904199999999	-384.9854	1321.97235	-766.3599499999999	-209.31468	1533.98084	-776.6766699999998	-369.16644	1522.86171	-764.5831899999998	-381.71844	1428.23451	-765.2136499999999	-221.06427	1404.04755	-777.9375999999999	-360.16797	1578.51466	-762.8064199999999	-269.49551	1832.82167	-766.8184699999999	-263.64937	1728.16433	-698.9000999999998	-295.00072	1734.64094	-839.7232599999999	-334.4335	1736.47502	-756.7883299999999	-332.31284	1556.73492	-551.4857099999999	-373.80896	1578.34271	-972.9808199999999	-263.53474	1486.23737	-308.98559999999986	-206.39161	1477.06696	-327.0971699999999	-399.94464	1492.71398	-1226.31348	-339.7638	1485.9508	-1227.63173	-133.60145	1437.80613	-85.45678999999991	-165.75522	1476.32187	-66.02696999999992	-223.24224	1463.42597	-333.28719999999987	-383.38058	1437.06103	-1479.01567	-426.42421	1469.27211	-1481.7668	-350.08052	1474.43047	-1218.97715	-109.98764	1442.10476	131.1942200000001	-90.72977	1422.61763	34.96220000000009	-116.86545	1450.2435	-38.51572999999991	-359.02167	1462.45162	-1686.20969	-338.90408	1438.95243	-1591.12397	-371.57367	1455.11529	-1516.84363	-357.30222	951.14378	-604.7887399999998	-396.3911	541.11168	-632.0134	-411.40765	541.51289	-710.59238	-360.39723	540.82511	-682.33604	-398.05324	950.2267300000001	-932.0005399999999	-433.30202	541.169	-889.47275	-422.12557	542.14335	-810.26331	-383.03669	540.36659	-853.47888	-348.76227	500.18872000000005	-684.97254	-435.42267	89.81273000000004	-635.56694	-448.31857	90.09931000000005	-701.13539	-370.31274	501.4496500000001	-854.73981	-459.89621	89.01032000000005	-871.36118	-450.66848	89.75542000000004	-805.10495	-477.66389	0.05732000000004039	-659.52464	-320.21936	6.132710000000045	-730.70997	-304.62966	7.85217000000004	-650.58349	-289.89968	7.909480000000043	-696.14898	-438.23111	2.579180000000041	-667.26218	-207.99643	11.233760000000045	-712.13989	-492.62312	-0.05731999999994908	-831.69915	-320.16204	4.871780000000051	-820.23613	-333.63109	4.642520000000055	-900.82113	-303.88456	5.387620000000053	-863.27976	-452.96109	2.0060300000000515	-838.3477	-221.52279	7.680220000000054	-877.03537	
109	1.8	-378.62343	984.6731	-768.4232999999999	-294.65683	1082.68189	-638.1461199999999	-318.49991	1082.16605	-911.5963699999999	-338.90408	1152.49166	-658.4929699999999	-358.56315	1152.09045	-884.1997599999999	-432.61423	929.53599	-706.7522699999998	-442.41511	929.30673	-819.6056599999998	-445.33818	1009.14664	-762.6344699999999	-405.61883	1100.50688	-766.4172699999999	-388.94014	1215.71019	-767.1050499999999	-384.81346	1321.97235	-766.4172699999999	-209.14273	1533.98084	-776.7339799999999	-368.99449	1522.86171	-764.6404999999999	-381.5465	1428.23451	-765.2709699999999	-220.89232	1404.04755	-777.9949099999999	-360.05334	1578.45734	-762.8637299999999	-269.32357	1832.76436	-766.8757899999999	-263.53474	1728.10702	-698.9574199999998	-294.82878	1734.58362	-839.7232599999999	-334.26155	1736.47502	-756.8456499999999	-332.19821	1556.73492	-551.5430299999999	-373.69433	1578.2854	-973.0381399999999	-263.3628	1486.12274	-309.04291999999987	-206.27698	1477.00965	-327.15447999999986	-399.77269	1492.65666	-1226.3708	-339.53454	1485.89348	-1227.68904	-133.48682	1437.6915	-85.51409999999991	-165.64059	1476.20724	-66.08428999999991	-223.0703	1463.31134	-333.3445099999999	-383.15132	1436.9464	-1479.07299	-426.19494	1469.15748	-1481.82411	-349.90857	1474.37315	-1219.03447	-109.8157	1441.93282	131.07959000000008	-90.55783	1422.503	34.904880000000084	-116.75082	1450.12887	-38.57304999999992	-358.79241	1462.3943	-1686.26701	-338.67482	1438.8378	-1591.18129	-371.34441	1455.05797	-1516.90094	-357.13027	951.14378	-604.9033699999999	-396.33379	541.11168	-632.07072	-411.29302	541.51289	-710.64969	-360.33992	540.82511	-682.39336	-397.82398	950.1694200000001	-932.0578499999999	-433.18738	541.11168	-889.47275	-422.01094	542.14335	-810.32062	-382.86474	540.36659	-853.47888	-348.70495	500.18872000000005	-685.02985	-435.42267	89.81273000000004	-635.56694	-448.31857	90.04199000000004	-701.13539	-370.19811	501.3923300000001	-854.73981	-459.89621	89.01032000000005	-871.36118	-450.66848	89.75542000000004	-805.10495	-477.66389	0.05732000000004039	-659.52464	-320.21936	6.132710000000045	-730.70997	-304.62966	7.85217000000004	-650.58349	-289.89968	7.909480000000043	-696.14898	-438.23111	2.579180000000041	-667.26218	-207.99643	11.233760000000045	-712.13989	-492.62312	-0.05731999999994908	-831.69915	-320.16204	4.871780000000051	-820.23613	-333.63109	4.642520000000055	-900.82113	-303.88456	5.387620000000053	-863.27976	-452.96109	2.0060300000000515	-838.3477	-221.52279	7.680220000000054	-877.03537	
110	1.817	-378.45148	984.61578	-768.4806099999998	-294.48489	1082.62457	-638.2034299999999	-318.27065	1082.10874	-911.6536799999999	-338.73213	1152.49166	-658.5502799999999	-358.33389	1152.03314	-884.2570799999999	-432.44229	929.47867	-706.8668999999999	-442.24317	929.30673	-819.7202899999999	-445.16624	1009.08932	-762.7490999999999	-405.44689	1100.44956	-766.4745799999998	-388.71088	1215.71019	-767.1623599999999	-384.5842	1321.91504	-766.4745799999998	-209.0281	1533.98084	-776.7912999999999	-368.82255	1522.8044	-764.6978199999999	-381.37455	1428.1772	-765.3282799999998	-220.72038	1404.04755	-778.0522299999999	-359.8814	1578.45734	-762.9210499999999	-269.20894	1832.76436	-766.9330999999999	-263.42011	1728.10702	-698.9574199999998	-294.65683	1734.58362	-839.7805699999999	-334.14692	1736.4177	-756.9029599999999	-332.08358	1556.67761	-551.6003399999998	-373.52239	1578.2854	-973.0954499999999	-263.24817	1486.06543	-309.1575499999999	-206.10503	1476.95233	-327.21179999999987	-399.54343	1492.59935	-1226.42811	-339.3626	1485.83617	-1227.74636	-133.31488	1437.57687	-85.62872999999992	-165.52595	1476.09261	-66.14159999999991	-222.95567	1463.25403	-333.4018299999999	-382.97937	1436.83177	-1479.1303	-426.023	1469.04285	-1481.88143	-349.73663	1474.31584	-1219.09178	-109.64375	1441.81819	131.02228000000008	-90.4432	1422.33106	34.790250000000086	-116.57888	1450.01424	-38.63035999999992	-358.56315	1462.22236	-1686.32432	-338.50287	1438.72317	-1591.18129	-371.11515	1454.94334	-1516.95826	-357.01564	951.08646	-604.9606799999999	-396.27647	541.11168	-632.12803	-411.23571	541.45557	-710.64969	-360.22529	540.76779	-682.39336	-397.59472	950.1694200000001	-932.1724799999998	-433.01544	541.11168	-889.53006	-421.89631	542.14335	-810.32062	-382.75011	540.30927	-853.53619	-348.64764	500.18872000000005	-685.02985	-435.42267	89.81273000000004	-635.56694	-448.31857	90.04199000000004	-701.19271	-370.08348	501.3923300000001	-854.79712	-459.89621	89.01032000000005	-871.36118	-450.66848	89.75542000000004	-805.10495	-477.66389	0.05732000000004039	-659.52464	-320.21936	6.132710000000045	-730.70997	-304.62966	7.85217000000004	-650.52617	-289.89968	7.909480000000043	-696.14898	-438.23111	2.579180000000041	-667.26218	-207.99643	11.233760000000045	-712.13989	-492.62312	-0.05731999999994908	-831.69915	-320.16204	4.871780000000051	-820.23613	-333.63109	4.642520000000055	-900.82113	-303.88456	5.444930000000054	-863.22244	-452.96109	2.0060300000000515	-838.3477	-221.52279	7.737540000000053	-876.97806	
111	1.833	-378.22222	984.61578	-768.5952399999999	-294.31294	1082.62457	-638.2607499999999	-317.98407	1082.10874	-911.7109999999999	-338.56019	1152.49166	-658.6075999999999	-358.10463	1152.03314	-884.3717099999999	-432.21303	929.47867	-706.9242099999999	-442.01391	929.24941	-819.8349199999999	-444.93698	1009.08932	-762.8637299999999	-405.21763	1100.44956	-766.5318999999998	-388.53894	1215.65288	-767.2196799999999	-384.41225	1321.91504	-766.5318999999998	-208.85616	1533.98084	-776.9059299999999	-368.6506	1522.8044	-764.8124499999999	-381.20261	1428.1772	-765.3855999999998	-220.54843	1404.04755	-778.1095399999999	-359.70945	1578.45734	-762.9783599999998	-269.03699	1832.76436	-766.9330999999999	-263.24817	1728.10702	-699.0147299999999	-294.5422	1734.58362	-839.8378899999999	-333.97498	1736.4177	-756.9602799999999	-331.91164	1556.67761	-551.6576599999999	-373.35044	1578.2854	-973.2100799999998	-263.07622	1486.00811	-309.2148599999999	-205.9904	1476.89502	-327.2691099999999	-399.31417	1492.54203	-1226.48543	-339.13334	1485.83617	-1227.80367	-133.20025	1437.46224	-85.68604999999991	-165.35401	1475.97798	-66.19891999999992	-222.84104	1463.19671	-333.5164599999999	-382.80743	1436.71714	-1479.1303	-425.79374	1468.98554	-1481.93874	-349.50737	1474.25852	-1219.1491	-109.47181	1441.70356	130.96496000000008	-90.27125	1422.21643	34.732940000000085	-116.46425	1449.89961	-38.744989999999916	-358.33389	1462.05041	-1686.38164	-338.27361	1438.49391	-1591.2386	-370.94321	1454.7714	-1517.01557	-356.8437	951.08646	-605.0179999999999	-396.21916	541.11168	-632.12803	-411.17839	541.45557	-710.70701	-360.22529	540.76779	-682.45067	-397.36546	950.1694200000001	-932.2297999999998	-432.90081	541.11168	-889.58738	-421.78168	542.14335	-810.37794	-382.63548	540.30927	-853.53619	-348.59032	500.13140000000004	-685.08717	-435.42267	89.81273000000004	-635.56694	-448.31857	90.04199000000004	-701.19271	-369.96885	501.33502000000004	-854.79712	-459.89621	89.01032000000005	-871.36118	-450.66848	89.75542000000004	-805.10495	-477.66389	0.05732000000004039	-659.52464	-320.21936	6.132710000000045	-730.70997	-304.62966	7.85217000000004	-650.52617	-289.89968	7.909480000000043	-696.14898	-438.23111	2.579180000000041	-667.26218	-207.99643	11.233760000000045	-712.08257	-492.62312	-0.05731999999994908	-831.69915	-320.16204	4.871780000000051	-820.23613	-333.63109	4.642520000000055	-900.76382	-303.88456	5.444930000000054	-863.22244	-452.96109	2.0060300000000515	-838.3477	-221.52279	7.737540000000053	-876.97806	
